<svg xmlns="http://www.w3.org/2000/svg" xmlns:xlink="http://www.w3.org/1999/xlink" width="200" zoomAndPan="magnify" viewBox="0 0 150 149.999998" height="200" preserveAspectRatio="xMidYMid meet" version="1.0"><defs><clipPath id="id1"><path d="M 14.988281 14.988281 L 134.988281 14.988281 L 134.988281 134.988281 L 14.988281 134.988281 Z M 14.988281 14.988281 " clip-rule="nonzero"/></clipPath></defs><rect x="-15" width="180" fill="rgb(100%, 100%, 100%)" y="-15" height="179.999997" fill-opacity="1"/><rect x="-15" width="180" fill="rgb(0%, 0%, 0%)" y="-15" height="179.999997" fill-opacity="1"/><rect x="-15" width="180" fill="rgb(100%, 100%, 100%)" y="-15" height="179.999997" fill-opacity="1"/><rect x="-15" width="180" fill="rgb(0%, 0%, 0%)" y="-15" height="179.999997" fill-opacity="1"/><g clip-path="url(#id1)"><path fill="rgb(100%, 100%, 100%)" d="M 74.988281 125.003906 C 47.410156 125.003906 24.972656 102.566406 24.972656 74.988281 C 24.972656 47.410156 47.410156 24.972656 74.988281 24.972656 C 102.566406 24.972656 125.003906 47.410156 125.003906 74.988281 C 125.003906 102.566406 102.566406 125.003906 74.988281 125.003906 Z M 74.988281 14.988281 C 41.902344 14.988281 14.988281 41.902344 14.988281 74.988281 C 14.988281 108.070312 41.902344 134.988281 74.988281 134.988281 C 108.070312 134.988281 134.988281 108.070312 134.988281 74.988281 C 134.988281 41.902344 108.070312 14.988281 74.988281 14.988281 " fill-opacity="1" fill-rule="nonzero"/></g><path fill="rgb(100%, 100%, 100%)" d="M 51.289062 58.101562 L 38.578125 58.101562 C 37.890625 58.101562 37.332031 58.660156 37.332031 59.347656 L 37.332031 66.246094 C 37.332031 66.933594 37.890625 67.492188 38.578125 67.492188 L 41.902344 67.492188 L 41.902344 90.667969 C 41.902344 91.359375 42.460938 91.917969 43.148438 91.917969 L 51.289062 91.917969 C 51.980469 91.917969 52.539062 91.359375 52.539062 90.667969 L 52.539062 59.347656 C 52.539062 58.660156 51.980469 58.101562 51.289062 58.101562 " fill-opacity="1" fill-rule="nonzero"/><path fill="rgb(100%, 100%, 100%)" d="M 69.570312 81.199219 C 69.570312 80.496094 69.796875 79.9375 70.292969 79.433594 C 70.777344 78.9375 71.339844 78.707031 72.058594 78.707031 C 72.753906 78.707031 73.3125 78.941406 73.816406 79.441406 C 74.316406 79.945312 74.550781 80.515625 74.550781 81.238281 C 74.550781 81.597656 74.488281 81.921875 74.359375 82.226562 C 74.226562 82.535156 74.046875 82.800781 73.816406 83.035156 C 73.574219 83.277344 73.296875 83.46875 72.976562 83.613281 C 72.359375 83.894531 71.667969 83.871094 71.101562 83.613281 C 70.789062 83.46875 70.523438 83.285156 70.300781 83.054688 C 70.074219 82.820312 69.902344 82.546875 69.765625 82.21875 C 69.632812 81.898438 69.570312 81.5625 69.570312 81.199219 Z M 70.492188 65.796875 C 70.921875 65.367188 71.421875 65.164062 72.058594 65.164062 C 72.691406 65.164062 73.1875 65.371094 73.617188 65.808594 C 74.054688 66.253906 74.257812 66.75 74.257812 67.367188 C 74.257812 67.636719 74.203125 67.898438 74.09375 68.15625 C 73.96875 68.4375 73.8125 68.679688 73.609375 68.890625 C 73.410156 69.097656 73.179688 69.261719 72.902344 69.390625 C 72.652344 69.507812 72.378906 69.566406 72.058594 69.566406 C 71.425781 69.566406 70.929688 69.359375 70.5 68.921875 C 70.0625 68.476562 69.859375 67.96875 69.859375 67.324219 C 69.859375 66.714844 70.0625 66.226562 70.492188 65.796875 Z M 80.371094 74.0625 C 80.515625 73.96875 80.652344 73.875 80.785156 73.777344 C 81.539062 73.234375 82.160156 72.632812 82.636719 71.996094 C 83.132812 71.324219 83.488281 70.578125 83.695312 69.773438 C 83.886719 69.023438 83.984375 68.171875 83.984375 67.242188 C 83.984375 65.726562 83.675781 64.332031 83.066406 63.09375 C 82.464844 61.878906 81.625 60.8125 80.5625 59.925781 C 79.511719 59.050781 78.238281 58.371094 76.777344 57.910156 C 75.347656 57.457031 73.757812 57.230469 72.058594 57.230469 C 70.359375 57.230469 68.773438 57.457031 67.34375 57.910156 C 65.878906 58.371094 64.605469 59.050781 63.554688 59.929688 C 62.496094 60.8125 61.652344 61.878906 61.054688 63.09375 C 60.445312 64.328125 60.136719 65.722656 60.136719 67.242188 C 60.136719 70.125 61.308594 72.441406 63.558594 74.054688 C 60.429688 75.902344 58.847656 78.628906 58.847656 82.195312 C 58.847656 83.753906 59.207031 85.210938 59.910156 86.523438 C 60.597656 87.808594 61.566406 88.9375 62.785156 89.871094 C 63.972656 90.789062 65.382812 91.503906 66.972656 92.003906 C 68.539062 92.496094 70.25 92.746094 72.058594 92.746094 C 73.925781 92.746094 75.667969 92.488281 77.242188 91.980469 C 78.828125 91.46875 80.226562 90.742188 81.40625 89.824219 C 82.605469 88.886719 83.558594 87.761719 84.234375 86.472656 C 84.921875 85.160156 85.269531 83.722656 85.269531 82.195312 C 85.269531 78.683594 83.625 75.957031 80.371094 74.0625 " fill-opacity="1" fill-rule="nonzero"/><path fill="rgb(100%, 100%, 100%)" d="M 111.394531 71.101562 L 104.210938 71.101562 L 104.210938 63.875 C 104.210938 63.1875 103.652344 62.628906 102.964844 62.628906 L 97.648438 62.628906 C 96.957031 62.628906 96.398438 63.1875 96.398438 63.875 L 96.398438 71.101562 L 89.171875 71.101562 C 88.484375 71.101562 87.925781 71.660156 87.925781 72.351562 L 87.925781 77.667969 C 87.925781 78.355469 88.484375 78.914062 89.171875 78.914062 L 96.398438 78.914062 L 96.398438 86.140625 C 96.398438 86.832031 96.957031 87.386719 97.648438 87.386719 L 102.964844 87.386719 C 103.652344 87.386719 104.210938 86.832031 104.210938 86.140625 L 104.210938 78.914062 L 111.394531 78.914062 C 112.085938 78.914062 112.644531 78.355469 112.644531 77.667969 L 112.644531 72.351562 C 112.644531 71.660156 112.085938 71.101562 111.394531 71.101562 " fill-opacity="1" fill-rule="nonzero"/></svg>