<svg xmlns="http://www.w3.org/2000/svg" xmlns:xlink="http://www.w3.org/1999/xlink" width="500" zoomAndPan="magnify" viewBox="0 0 375 374.999991" height="500" preserveAspectRatio="xMidYMid meet" version="1.0"><defs><clipPath id="id1"><path d="M 127.351562 127.351562 L 247.351562 127.351562 L 247.351562 247.351562 L 127.351562 247.351562 Z M 127.351562 127.351562 " clip-rule="nonzero"/></clipPath></defs><g clip-path="url(#id1)"><path fill="rgb(100%, 100%, 100%)" d="M 187.351562 237.367188 C 159.773438 237.367188 137.335938 214.929688 137.335938 187.351562 C 137.335938 159.773438 159.773438 137.335938 187.351562 137.335938 C 214.929688 137.335938 237.367188 159.773438 237.367188 187.351562 C 237.367188 214.929688 214.929688 237.367188 187.351562 237.367188 Z M 187.351562 127.351562 C 154.265625 127.351562 127.351562 154.265625 127.351562 187.351562 C 127.351562 220.433594 154.265625 247.351562 187.351562 247.351562 C 220.433594 247.351562 247.351562 220.433594 247.351562 187.351562 C 247.351562 154.265625 220.433594 127.351562 187.351562 127.351562 " fill-opacity="1" fill-rule="nonzero"/></g><path fill="rgb(100%, 100%, 100%)" d="M 163.652344 170.460938 L 150.941406 170.460938 C 150.253906 170.460938 149.695312 171.023438 149.695312 171.710938 L 149.695312 178.609375 C 149.695312 179.296875 150.253906 179.855469 150.941406 179.855469 L 154.261719 179.855469 L 154.261719 203.03125 C 154.261719 203.722656 154.824219 204.28125 155.511719 204.28125 L 163.652344 204.28125 C 164.34375 204.28125 164.902344 203.722656 164.902344 203.03125 L 164.902344 171.710938 C 164.902344 171.023438 164.34375 170.460938 163.652344 170.460938 " fill-opacity="1" fill-rule="nonzero"/><path fill="rgb(100%, 100%, 100%)" d="M 181.933594 193.5625 C 181.933594 192.859375 182.160156 192.300781 182.65625 191.796875 C 183.140625 191.300781 183.703125 191.070312 184.421875 191.070312 C 185.117188 191.070312 185.675781 191.304688 186.175781 191.804688 C 186.679688 192.308594 186.914062 192.878906 186.914062 193.601562 C 186.914062 193.960938 186.851562 194.285156 186.722656 194.589844 C 186.589844 194.898438 186.410156 195.164062 186.179688 195.398438 C 185.9375 195.640625 185.660156 195.828125 185.339844 195.976562 C 184.722656 196.257812 184.03125 196.234375 183.464844 195.976562 C 183.148438 195.832031 182.886719 195.648438 182.664062 195.417969 C 182.4375 195.183594 182.265625 194.910156 182.128906 194.582031 C 181.996094 194.261719 181.933594 193.925781 181.933594 193.5625 Z M 182.855469 178.160156 C 183.285156 177.730469 183.785156 177.527344 184.421875 177.527344 C 185.054688 177.527344 185.550781 177.734375 185.980469 178.171875 C 186.417969 178.617188 186.621094 179.113281 186.621094 179.730469 C 186.621094 180 186.566406 180.261719 186.457031 180.519531 C 186.332031 180.800781 186.175781 181.042969 185.972656 181.253906 C 185.773438 181.460938 185.542969 181.625 185.265625 181.753906 C 185.015625 181.871094 184.742188 181.929688 184.421875 181.929688 C 183.789062 181.929688 183.292969 181.722656 182.863281 181.285156 C 182.425781 180.839844 182.222656 180.332031 182.222656 179.6875 C 182.222656 179.074219 182.421875 178.589844 182.855469 178.160156 Z M 192.734375 186.425781 C 192.878906 186.332031 193.015625 186.234375 193.148438 186.140625 C 193.898438 185.597656 194.523438 184.996094 195 184.355469 C 195.496094 183.6875 195.851562 182.941406 196.058594 182.136719 C 196.25 181.386719 196.347656 180.535156 196.347656 179.601562 C 196.347656 178.089844 196.039062 176.695312 195.429688 175.457031 C 194.828125 174.242188 193.988281 173.175781 192.925781 172.289062 C 191.875 171.414062 190.601562 170.734375 189.140625 170.273438 C 187.710938 169.820312 186.121094 169.589844 184.421875 169.589844 C 182.722656 169.589844 181.136719 169.820312 179.707031 170.273438 C 178.242188 170.734375 176.96875 171.414062 175.917969 172.289062 C 174.859375 173.175781 174.015625 174.242188 173.417969 175.457031 C 172.808594 176.691406 172.5 178.085938 172.5 179.601562 C 172.5 182.484375 173.671875 184.804688 175.921875 186.417969 C 172.792969 188.265625 171.210938 190.992188 171.210938 194.558594 C 171.210938 196.117188 171.570312 197.574219 172.273438 198.886719 C 172.960938 200.171875 173.929688 201.300781 175.144531 202.234375 C 176.335938 203.152344 177.746094 203.867188 179.332031 204.367188 C 180.902344 204.859375 182.613281 205.109375 184.421875 205.109375 C 186.289062 205.109375 188.03125 204.851562 189.605469 204.34375 C 191.191406 203.832031 192.589844 203.105469 193.765625 202.1875 C 194.96875 201.25 195.921875 200.125 196.597656 198.832031 C 197.285156 197.523438 197.632812 196.085938 197.632812 194.558594 C 197.632812 191.046875 195.988281 188.320312 192.734375 186.425781 " fill-opacity="1" fill-rule="nonzero"/><path fill="rgb(100%, 100%, 100%)" d="M 223.757812 183.464844 L 216.574219 183.464844 L 216.574219 176.238281 C 216.574219 175.550781 216.015625 174.992188 215.328125 174.992188 L 210.007812 174.992188 C 209.320312 174.992188 208.761719 175.550781 208.761719 176.238281 L 208.761719 183.464844 L 201.535156 183.464844 C 200.847656 183.464844 200.289062 184.023438 200.289062 184.710938 L 200.289062 190.03125 C 200.289062 190.71875 200.847656 191.277344 201.535156 191.277344 L 208.761719 191.277344 L 208.761719 198.503906 C 208.761719 199.191406 209.320312 199.75 210.007812 199.75 L 215.328125 199.75 C 216.015625 199.75 216.574219 199.191406 216.574219 198.503906 L 216.574219 191.277344 L 223.757812 191.277344 C 224.449219 191.277344 225.007812 190.71875 225.007812 190.03125 L 225.007812 184.710938 C 225.007812 184.023438 224.449219 183.464844 223.757812 183.464844 " fill-opacity="1" fill-rule="nonzero"/></svg>