<svg xmlns="http://www.w3.org/2000/svg" xmlns:xlink="http://www.w3.org/1999/xlink" width="138" zoomAndPan="magnify" viewBox="0 0 103.5 112.499997" height="150" preserveAspectRatio="xMidYMid meet" version="1.0"><defs><clipPath id="id1"><path d="M 41 0.0234375 L 67.042969 0.0234375 L 67.042969 111.980469 L 41 111.980469 Z M 41 0.0234375 " clip-rule="nonzero"/></clipPath><clipPath id="id2"><path d="M 47 0.0234375 L 102 0.0234375 L 102 111.980469 L 47 111.980469 Z M 47 0.0234375 " clip-rule="nonzero"/></clipPath><clipPath id="id3"><path d="M 48 0.0234375 L 103.003906 0.0234375 L 103.003906 111.980469 L 48 111.980469 Z M 48 0.0234375 " clip-rule="nonzero"/></clipPath></defs><g clip-path="url(#id1)"><path fill="rgb(100%, 100%, 100%)" d="M 50.007812 0.0234375 L 59.007812 56.273438 L 50.007812 112.523438 L 67.042969 112.523438 L 67.042969 0.0234375 Z M 44.222656 0.0234375 L 41.328125 0.0234375 L 50.652344 56.671875 L 41.328125 112.523438 L 44.222656 112.523438 L 53.222656 56.273438 Z M 44.222656 0.0234375 " fill-opacity="1" fill-rule="evenodd"/></g><g clip-path="url(#id2)"><path fill="rgb(11.369324%, 11.369324%, 11.369324%)" d="M 82.117188 117.996094 L 101.175781 -2.953125 L 68.765625 -8.058594 L 47.523438 126.757812 L 79.933594 131.863281 L 81.582031 121.394531 L 85.730469 120.398438 L 82.117188 117.996094 " fill-opacity="1" fill-rule="nonzero"/></g><g clip-path="url(#id3)"><path fill="rgb(11.369324%, 11.369324%, 11.369324%)" d="M 185.578125 151.183594 L 157.628906 -22.183594 L 48.984375 -4.667969 L 79.183594 182.652344 L 187.828125 165.136719 L 186.140625 154.679688 L 189.789062 152.445312 L 185.578125 151.183594 " fill-opacity="1" fill-rule="nonzero"/></g></svg>