<svg xmlns="http://www.w3.org/2000/svg" xmlns:xlink="http://www.w3.org/1999/xlink" width="138" zoomAndPan="magnify" viewBox="0 0 103.5 149.999998" height="200" preserveAspectRatio="xMidYMid meet" version="1.0"><defs><clipPath id="id1"><path d="M 68 0.359375 L 103.003906 0.359375 L 103.003906 146.792969 L 68 146.792969 Z M 68 0.359375 " clip-rule="nonzero"/></clipPath><clipPath id="id2"><path d="M 78 58 L 103.003906 58 L 103.003906 149.636719 L 78 149.636719 Z M 78 58 " clip-rule="nonzero"/></clipPath><clipPath id="id3"><path d="M 78 0.359375 L 103.003906 0.359375 L 103.003906 88 L 78 88 Z M 78 0.359375 " clip-rule="nonzero"/></clipPath></defs><g clip-path="url(#id1)"><path fill="rgb(100%, 100%, 100%)" d="M 80.375 -3.207031 L 92.375 71.792969 L 80.375 146.792969 L 103.089844 146.792969 L 103.089844 -3.207031 Z M 72.660156 -3.207031 L 68.804688 -3.207031 L 81.234375 72.328125 L 68.804688 146.792969 L 72.660156 146.792969 L 84.660156 71.792969 Z M 72.660156 -3.207031 " fill-opacity="1" fill-rule="evenodd"/></g><g clip-path="url(#id2)"><path fill="rgb(11.369324%, 11.369324%, 11.369324%)" d="M 93.964844 58.707031 L 188.628906 74.667969 L 172.667969 169.332031 L 78.003906 153.371094 L 93.964844 58.707031 " fill-opacity="1" fill-rule="nonzero"/></g><g clip-path="url(#id3)"><path fill="rgb(11.369324%, 11.369324%, 11.369324%)" d="M 188.894531 71.679688 L 94.132812 87.054688 L 78.757812 -7.707031 L 173.519531 -23.082031 L 188.894531 71.679688 " fill-opacity="1" fill-rule="nonzero"/></g></svg>